<svg xmlns="http://www.w3.org/2000/svg" xmlns:xlink="http://www.w3.org/1999/xlink" contentStyleType="text/css" data-diagram-type="DESCRIPTION" height="377px" preserveAspectRatio="none" style="width:1195px;height:377px;background:#FFFFFF;" version="1.1" viewBox="0 0 1195 377" width="1195px" zoomAndPan="magnify"><title>Use Case 2: Anonymous Screening &amp; Ranking</title><defs/><g><text fill="#000000" font-family="sans-serif" font-size="14" font-weight="bold" lengthAdjust="spacing" textLength="358.8799" x="411.4851" y="22.9951">Use Case 2: Anonymous Screening &amp; Ranking</text><!--cluster 2. Anonymous Screening & Ranking--><g class="cluster" data-entity="2. Anonymous Screening &amp; Ranking" data-source-line="21" data-uid="ent0011" id="cluster_2. Anonymous Screening &amp; Ranking"><path d="M613.67,43.2969 L896.7755,43.2969 A3.75,3.75 0 0 1 899.2755,45.7969 L906.2755,65.5938 L1186.35,65.5938 A2.5,2.5 0 0 1 1188.85,68.0938 L1188.85,277.7969 A2.5,2.5 0 0 1 1186.35,280.2969 L613.67,280.2969 A2.5,2.5 0 0 1 611.17,277.7969 L611.17,45.7969 A2.5,2.5 0 0 1 613.67,43.2969" fill="none" style="stroke:#000000;stroke-width:1.5;"/><line style="stroke:#000000;stroke-width:1.5;" x1="611.17" x2="906.2755" y1="65.5938" y2="65.5938"/><text fill="#000000" font-family="sans-serif" font-size="14" font-weight="bold" lengthAdjust="spacing" textLength="282.1055" x="615.17" y="58.292">2. Anonymous Screening &amp; Ranking</text></g><g class="entity" data-entity="UC_ViewRank" data-source-line="22" data-uid="ent0012" id="entity_UC_ViewRank"><ellipse cx="740.5684" cy="199.2966" fill="#F1F1F1" rx="113.3984" ry="25.0797" style="stroke:#181818;stroke-width:0.5;"/><text fill="#000000" font-family="sans-serif" font-size="14" lengthAdjust="spacing" textLength="193.2109" x="643.9629" y="202.1432">View Anonymized Rankings</text></g><g class="entity" data-entity="UC_HidePII" data-source-line="23" data-uid="ent0013" id="entity_UC_HidePII"><ellipse cx="1075.9114" cy="169.2952" fill="#F1F1F1" rx="69.1914" ry="16.2383" style="stroke:#181818;stroke-width:0.5;"/><text fill="#000000" font-family="sans-serif" font-size="14" lengthAdjust="spacing" textLength="90.624" x="1027.5994" y="173.0427">Auto-Hide PII</text></g><g class="entity" data-entity="UC_MLRank" data-source-line="24" data-uid="ent0014" id="entity_UC_MLRank"><ellipse cx="1075.909" cy="242.2947" fill="#F1F1F1" rx="96.939" ry="21.7878" style="stroke:#181818;stroke-width:0.5;"/><text fill="#000000" font-family="sans-serif" font-size="14" lengthAdjust="spacing" textLength="157.2881" x="997.265" y="245.1414">ML Candidate Ranking</text></g><g class="entity" data-entity="GMN15" data-source-line="27" data-uid="ent0016" id="entity_GMN15"><path d="M980.73,78.1669 L980.73,118.4325 A0,0 0 0 0 980.73,118.4325 L1071.91,118.4325 L1075.91,152.6569 L1079.91,118.4325 L1171.0855,118.4325 A0,0 0 0 0 1171.0855,118.4325 L1171.0855,88.1669 L1161.0855,78.1669 L980.73,78.1669 A0,0 0 0 0 980.73,78.1669" fill="#FEFFDD" style="stroke:#181818;stroke-width:0.5;"/><path d="M1161.0855,78.1669 L1161.0855,88.1669 L1171.0855,88.1669 L1161.0855,78.1669" fill="#FEFFDD" style="stroke:#181818;stroke-width:0.5;"/><text fill="#000000" font-family="sans-serif" font-size="13" lengthAdjust="spacing" textLength="169.3555" x="986.73" y="95.2338">Hides names, photos, etc.</text><text fill="#000000" font-family="sans-serif" font-size="13" lengthAdjust="spacing" textLength="97.0303" x="986.73" y="110.3666">to reduce bias.</text></g><!--entity V--><g class="entity" data-entity="V" data-source-line="6" data-uid="ent0002" id="entity_V"><ellipse cx="28.2305" cy="241.6469" fill="#F1F1F1" rx="8" ry="8" style="stroke:#181818;stroke-width:0.5;"/><path d="M28.2305,249.6469 L28.2305,276.6469 M15.2305,257.6469 L41.2305,257.6469 M28.2305,276.6469 L15.2305,291.6469 M28.2305,276.6469 L41.2305,291.6469" fill="none" style="stroke:#181818;stroke-width:0.5;"/><text fill="#000000" font-family="sans-serif" font-size="14" lengthAdjust="spacing" textLength="44.4609" x="6" y="306.142">Visitor</text></g><!--entity U--><g class="entity" data-entity="U" data-source-line="7" data-uid="ent0003" id="entity_U"><ellipse cx="323.1067" cy="169.6469" fill="#F1F1F1" rx="8" ry="8" style="stroke:#181818;stroke-width:0.5;"/><path d="M323.1067,177.6469 L323.1067,204.6469 M310.1067,185.6469 L336.1067,185.6469 M323.1067,204.6469 L310.1067,219.6469 M323.1067,204.6469 L336.1067,219.6469" fill="none" style="stroke:#181818;stroke-width:0.5;"/><text fill="#000000" font-family="sans-serif" font-size="14" lengthAdjust="spacing" textLength="105.8135" x="270.2" y="234.142">Logged-in User</text></g><!--entity R--><g class="entity" data-entity="R" data-source-line="8" data-uid="ent0004" id="entity_R"><ellipse cx="531.9675" cy="169.6469" fill="#F1F1F1" rx="8" ry="8" style="stroke:#181818;stroke-width:0.5;"/><path d="M531.9675,177.6469 L531.9675,204.6469 M518.9675,185.6469 L544.9675,185.6469 M531.9675,204.6469 L518.9675,219.6469 M531.9675,204.6469 L544.9675,219.6469" fill="none" style="stroke:#181818;stroke-width:0.5;"/><text fill="#000000" font-family="sans-serif" font-size="14" lengthAdjust="spacing" textLength="64.415" x="499.76" y="234.142">Recruiter</text></g><!--entity AI--><g class="entity" data-entity="AI" data-source-line="9" data-uid="ent0005" id="entity_AI"><ellipse cx="740.5679" cy="304.6469" fill="#F1F1F1" rx="8" ry="8" style="stroke:#181818;stroke-width:0.5;"/><path d="M740.5679,312.6469 L740.5679,339.6469 M727.5679,320.6469 L753.5679,320.6469 M740.5679,339.6469 L727.5679,354.6469 M740.5679,339.6469 L753.5679,354.6469" fill="none" style="stroke:#181818;stroke-width:0.5;"/><text fill="#000000" font-family="sans-serif" font-size="14" lengthAdjust="spacing" textLength="59.5957" x="710.77" y="369.142">AI Agent</text></g><g class="entity" data-entity="GMN8" data-source-line="16" data-uid="ent0009" id="entity_GMN8"><path d="M207.46,272.5969 L207.46,284.9269 L50.77,273.4269 L207.46,292.9269 L207.46,327.9953 A0,0 0 0 0 207.46,327.9953 L438.7579,327.9953 A0,0 0 0 0 438.7579,327.9953 L438.7579,282.5969 L428.7579,272.5969 L207.46,272.5969 A0,0 0 0 0 207.46,272.5969" fill="#FEFFDD" style="stroke:#181818;stroke-width:0.5;"/><path d="M428.7579,272.5969 L428.7579,282.5969 L438.7579,282.5969 L428.7579,272.5969" fill="#FEFFDD" style="stroke:#181818;stroke-width:0.5;"/><text fill="#000000" font-family="sans-serif" font-size="13" lengthAdjust="spacing" textLength="210.2979" x="213.46" y="289.6638">Unauthenticated users (Visitors)</text><text fill="#000000" font-family="sans-serif" font-size="13" lengthAdjust="spacing" textLength="137.8267" x="213.46" y="304.7966">must log in to access</text><text fill="#000000" font-family="sans-serif" font-size="13" lengthAdjust="spacing" textLength="128.4829" x="213.46" y="319.9294">core functionalities.</text></g><!--reverse link V to U--><g class="link" data-entity-1="V" data-entity-2="U" data-source-line="12" data-uid="lnk6" id="link_V_U"><path d="M68.2488,261.7069 C114.0188,250.4469 204.63,228.1769 269.73,212.1769" fill="none" id="V-backto-U" style="stroke:#181818;stroke-width:1;"/><polygon fill="none" points="50.77,266.0069,69.6822,267.5331,66.8155,255.8806,50.77,266.0069" style="stroke:#181818;stroke-width:1;"/><text fill="#000000" font-family="sans-serif" font-size="13" lengthAdjust="spacing" textLength="95.4307" x="81.46" y="231.3638">Authentication</text></g><!--reverse link U to R--><g class="link" data-entity-1="U" data-entity-2="R" data-source-line="13" data-uid="lnk7" id="link_U_R"><path d="M394.31,199.2969 C433.09,199.2969 466.72,199.2969 499.41,199.2969" fill="none" id="U-backto-R" style="stroke:#181818;stroke-width:1;"/><polygon fill="none" points="376.31,199.2969,394.31,205.2969,394.31,193.2969,376.31,199.2969" style="stroke:#181818;stroke-width:1;"/></g><!--link R to UC_ViewRank--><g class="link" data-entity-1="R" data-entity-2="UC_ViewRank" data-source-line="33" data-uid="lnk18" id="link_R_UC_ViewRank"><path d="M564.35,199.2969 C581.5,199.2969 597.92,199.2969 620.96,199.2969" fill="none" id="R-to-UC_ViewRank" style="stroke:#181818;stroke-width:1;"/><polygon fill="#181818" points="626.96,199.2969,617.96,195.2969,621.96,199.2969,617.96,203.2969,626.96,199.2969" style="stroke:#181818;stroke-width:1;"/></g><!--link AI to UC_HidePII--><g class="link" data-entity-1="AI" data-entity-2="UC_HidePII" data-source-line="34" data-uid="lnk19" id="link_AI_UC_HidePII"><path d="M770.69,320.3369 C793.39,309.4469 825.7,293.9369 853.97,280.2969 C896.22,259.9169 910.96,261.7969 948.97,234.2969 C964.5,223.0569 962.84,213.6669 978.97,203.2969 C993.69,193.8369 1005.6702,188.4909 1021.8202,183.1809" fill="none" id="AI-to-UC_HidePII" style="stroke:#181818;stroke-width:1;"/><polygon fill="#181818" points="1027.52,181.3069,1017.7209,180.3181,1022.7702,182.8686,1020.2196,187.9178,1027.52,181.3069" style="stroke:#181818;stroke-width:1;"/></g><!--link AI to UC_MLRank--><g class="link" data-entity-1="AI" data-entity-2="UC_MLRank" data-source-line="35" data-uid="lnk20" id="link_AI_UC_MLRank"><path d="M770.79,334.1269 C811.6,333.1469 887.56,328.5969 948.97,309.2969 C983.11,298.5669 1013.7483,281.7809 1038.3883,266.4209" fill="none" id="AI-to-UC_MLRank" style="stroke:#181818;stroke-width:1;"/><polygon fill="#181818" points="1043.48,263.2469,1033.7264,264.6135,1039.2369,265.8919,1037.9585,271.4024,1043.48,263.2469" style="stroke:#181818;stroke-width:1;"/></g><!--link UC_ViewRank to UC_HidePII--><g class="link" data-entity-1="UC_ViewRank" data-entity-2="UC_HidePII" data-source-line="36" data-uid="lnk21" id="link_UC_ViewRank_UC_HidePII"><path d="M846.13,189.8869 C900.16,185.0269 958.3841,179.784 1005.0041,175.594" fill="none" id="UC_ViewRank-to-UC_HidePII" style="stroke:#181818;stroke-width:1;stroke-dasharray:7.0,7.0;"/><polygon fill="#181818" points="1010.98,175.0569,1001.6581,171.8786,1006.0001,175.5044,1002.3742,179.8465,1010.98,175.0569" style="stroke:#181818;stroke-width:1;"/><text fill="#000000" font-family="sans-serif" font-size="13" lengthAdjust="spacing" textLength="63.0068" x="884.97" y="177.3638">&#171;include&#187;</text></g><!--link UC_ViewRank to UC_MLRank--><g class="link" data-entity-1="UC_ViewRank" data-entity-2="UC_MLRank" data-source-line="37" data-uid="lnk22" id="link_UC_ViewRank_UC_MLRank"><path d="M839.33,211.9069 C887.45,218.1169 938.9294,224.7588 985.0294,230.7088" fill="none" id="UC_ViewRank-to-UC_MLRank" style="stroke:#181818;stroke-width:1;stroke-dasharray:7.0,7.0;"/><polygon fill="#181818" points="990.98,231.4769,982.5661,226.3577,986.0211,230.8368,981.542,234.2919,990.98,231.4769" style="stroke:#181818;stroke-width:1;"/><text fill="#000000" font-family="sans-serif" font-size="13" lengthAdjust="spacing" textLength="63.0068" x="884.97" y="214.3638">&#171;include&#187;</text></g><!--SRC=[VL9DQ-Cm4BthLmmvRBTG-z1Z2G7JImqfB2xETL6bYJtKaO9dpBBjxd_lo1z9KqfzaAKtJpDltaX8EeIQ4UwjBhTtK8GO_XxYmF3aUiH0eO4VKDdmeZjZEjmBI8IUcbR0KuzEA0PZhg1m4disDlrWjICctQp0CkmMS1kR1dr68PMSOlKIgz3r0yaCLmjSb50q66H4Yp8LAaEBFOaD3iqErl-o36fGvOEqIYHdHqNr5AcC2L5m5XptAWQW3lPCHW-3gc7uEMlcQwKS1XReOWCgLlkrpY6puYxs2FiXZ6tRZeIGSuF1GofZpD6w5ziWh6xpxxrSmPkcWrJR9U_LCVmpNw5N5JNpUBBf_dUA9-pobdOTimVo2B_ASg6cinulcOzR7NBmvBNbiuZfmkFsb7bSHikUeqWy9Cy-fKnVEZC4Uq2-WMCR9UeVnUKdHdebw0UdYSZoX9zy-fy6MM4tpefREhAf8Cis5utgx6TegNv6PiKVw93d7xdw8jPh2guRF6usNn6d59zuxm00]--></g></svg>