<svg xmlns="http://www.w3.org/2000/svg" xmlns:xlink="http://www.w3.org/1999/xlink" contentStyleType="text/css" data-diagram-type="DESCRIPTION" height="316px" preserveAspectRatio="none" style="width:962px;height:316px;background:#FFFFFF;" version="1.1" viewBox="0 0 962 316" width="962px" zoomAndPan="magnify"><title>Use Case 1: Role Intake &amp; Alignment</title><defs/><g><text fill="#000000" font-family="sans-serif" font-size="14" font-weight="bold" lengthAdjust="spacing" textLength="289.5156" x="329.4572" y="22.9951">Use Case 1: Role Intake &amp; Alignment</text><!--cluster 1. Role Intake & Alignment--><g class="cluster" data-entity="1. Role Intake &amp; Alignment" data-source-line="22" data-uid="ent0012" id="cluster_1. Role Intake &amp; Alignment"><path d="M656.9,43.2969 L870.6412,43.2969 A3.75,3.75 0 0 1 873.1412,45.7969 L880.1412,65.5938 L952.93,65.5938 A2.5,2.5 0 0 1 955.43,68.0938 L955.43,221.7969 A2.5,2.5 0 0 1 952.93,224.2969 L656.9,224.2969 A2.5,2.5 0 0 1 654.4,221.7969 L654.4,45.7969 A2.5,2.5 0 0 1 656.9,43.2969" fill="none" style="stroke:#000000;stroke-width:1.5;"/><line style="stroke:#000000;stroke-width:1.5;" x1="654.4" x2="880.1412" y1="65.5938" y2="65.5938"/><text fill="#000000" font-family="sans-serif" font-size="14" font-weight="bold" lengthAdjust="spacing" textLength="212.7412" x="658.4" y="58.292">1. Role Intake &amp; Alignment</text></g><g class="entity" data-entity="UC_RoleDef" data-source-line="23" data-uid="ent0013" id="entity_UC_RoleDef"><ellipse cx="804.9106" cy="181.299" fill="#F1F1F1" rx="125.2606" ry="27.4521" style="stroke:#181818;stroke-width:0.5;"/><text fill="#000000" font-family="sans-serif" font-size="14" lengthAdjust="spacing" textLength="218.5449" x="695.6382" y="184.1457">Define Role Priorities &amp; Criteria</text></g><g class="entity" data-entity="GMN14" data-source-line="25" data-uid="ent0015" id="entity_GMN14"><path d="M670.4,78.1669 L670.4,118.4325 A0,0 0 0 0 670.4,118.4325 L800.91,118.4325 L804.91,153.4169 L808.91,118.4325 L939.4283,118.4325 A0,0 0 0 0 939.4283,118.4325 L939.4283,88.1669 L929.4283,78.1669 L670.4,78.1669 A0,0 0 0 0 670.4,78.1669" fill="#FEFFDD" style="stroke:#181818;stroke-width:0.5;"/><path d="M929.4283,78.1669 L929.4283,88.1669 L939.4283,88.1669 L929.4283,78.1669" fill="#FEFFDD" style="stroke:#181818;stroke-width:0.5;"/><text fill="#000000" font-family="sans-serif" font-size="13" lengthAdjust="spacing" textLength="248.0283" x="676.4" y="95.2338">Collaboratively define responsibilities,</text><text fill="#000000" font-family="sans-serif" font-size="13" lengthAdjust="spacing" textLength="217.2168" x="676.4" y="110.3666">priorities, and evaluation criteria.</text></g><!--entity V--><g class="entity" data-entity="V" data-source-line="6" data-uid="ent0002" id="entity_V"><ellipse cx="28.2305" cy="223.6469" fill="#F1F1F1" rx="8" ry="8" style="stroke:#181818;stroke-width:0.5;"/><path d="M28.2305,231.6469 L28.2305,258.6469 M15.2305,239.6469 L41.2305,239.6469 M28.2305,258.6469 L15.2305,273.6469 M28.2305,258.6469 L41.2305,273.6469" fill="none" style="stroke:#181818;stroke-width:0.5;"/><text fill="#000000" font-family="sans-serif" font-size="14" lengthAdjust="spacing" textLength="44.4609" x="6" y="288.142">Visitor</text></g><!--entity U--><g class="entity" data-entity="U" data-source-line="7" data-uid="ent0003" id="entity_U"><ellipse cx="323.1067" cy="151.6469" fill="#F1F1F1" rx="8" ry="8" style="stroke:#181818;stroke-width:0.5;"/><path d="M323.1067,159.6469 L323.1067,186.6469 M310.1067,167.6469 L336.1067,167.6469 M323.1067,186.6469 L310.1067,201.6469 M323.1067,186.6469 L336.1067,201.6469" fill="none" style="stroke:#181818;stroke-width:0.5;"/><text fill="#000000" font-family="sans-serif" font-size="14" lengthAdjust="spacing" textLength="105.8135" x="270.2" y="216.142">Logged-in User</text></g><!--entity R--><g class="entity" data-entity="R" data-source-line="8" data-uid="ent0004" id="entity_R"><ellipse cx="553.5775" cy="104.6469" fill="#F1F1F1" rx="8" ry="8" style="stroke:#181818;stroke-width:0.5;"/><path d="M553.5775,112.6469 L553.5775,139.6469 M540.5775,120.6469 L566.5775,120.6469 M553.5775,139.6469 L540.5775,154.6469 M553.5775,139.6469 L566.5775,154.6469" fill="none" style="stroke:#181818;stroke-width:0.5;"/><text fill="#000000" font-family="sans-serif" font-size="14" lengthAdjust="spacing" textLength="64.415" x="521.37" y="169.142">Recruiter</text></g><!--entity HM--><g class="entity" data-entity="HM" data-source-line="9" data-uid="ent0005" id="entity_HM"><ellipse cx="553.5793" cy="215.6469" fill="#F1F1F1" rx="8" ry="8" style="stroke:#181818;stroke-width:0.5;"/><path d="M553.5793,223.6469 L553.5793,250.6469 M540.5793,231.6469 L566.5793,231.6469 M553.5793,250.6469 L540.5793,265.6469 M553.5793,250.6469 L566.5793,265.6469" fill="none" style="stroke:#181818;stroke-width:0.5;"/><text fill="#000000" font-family="sans-serif" font-size="14" lengthAdjust="spacing" textLength="107.6387" x="499.76" y="280.142">Hiring Manager</text></g><g class="entity" data-entity="GMN9" data-source-line="17" data-uid="ent0010" id="entity_GMN9"><path d="M207.46,254.5969 L207.46,266.9269 L50.77,255.4269 L207.46,274.9269 L207.46,309.9953 A0,0 0 0 0 207.46,309.9953 L438.7579,309.9953 A0,0 0 0 0 438.7579,309.9953 L438.7579,264.5969 L428.7579,254.5969 L207.46,254.5969 A0,0 0 0 0 207.46,254.5969" fill="#FEFFDD" style="stroke:#181818;stroke-width:0.5;"/><path d="M428.7579,254.5969 L428.7579,264.5969 L438.7579,264.5969 L428.7579,254.5969" fill="#FEFFDD" style="stroke:#181818;stroke-width:0.5;"/><text fill="#000000" font-family="sans-serif" font-size="13" lengthAdjust="spacing" textLength="210.2979" x="213.46" y="271.6638">Unauthenticated users (Visitors)</text><text fill="#000000" font-family="sans-serif" font-size="13" lengthAdjust="spacing" textLength="137.8267" x="213.46" y="286.7966">must log in to access</text><text fill="#000000" font-family="sans-serif" font-size="13" lengthAdjust="spacing" textLength="128.4829" x="213.46" y="301.9294">core functionalities.</text></g><!--reverse link V to U--><g class="link" data-entity-1="V" data-entity-2="U" data-source-line="12" data-uid="lnk6" id="link_V_U"><path d="M68.2488,243.7069 C114.0188,232.4469 204.63,210.1769 269.73,194.1769" fill="none" id="V-backto-U" style="stroke:#181818;stroke-width:1;"/><polygon fill="none" points="50.77,248.0069,69.6822,249.5331,66.8155,237.8806,50.77,248.0069" style="stroke:#181818;stroke-width:1;"/><text fill="#000000" font-family="sans-serif" font-size="13" lengthAdjust="spacing" textLength="95.4307" x="81.46" y="213.3638">Authentication</text></g><!--reverse link U to R--><g class="link" data-entity-1="U" data-entity-2="R" data-source-line="13" data-uid="lnk7" id="link_U_R"><path d="M393.8703,166.9473 C438.5103,157.7573 483.71,148.4669 521.08,140.7769" fill="none" id="U-backto-R" style="stroke:#181818;stroke-width:1;"/><polygon fill="none" points="376.24,170.5769,395.0801,172.8241,392.6604,161.0706,376.24,170.5769" style="stroke:#181818;stroke-width:1;"/></g><!--reverse link U to HM--><g class="link" data-entity-1="U" data-entity-2="HM" data-source-line="14" data-uid="lnk8" id="link_U_HM"><path d="M393.5726,200.753 C430.4426,211.083 462.4,220.0369 499.49,230.4269" fill="none" id="U-backto-HM" style="stroke:#181818;stroke-width:1;"/><polygon fill="none" points="376.24,195.8969,391.9539,206.5305,395.1913,194.9755,376.24,195.8969" style="stroke:#181818;stroke-width:1;"/></g><!--link R to UC_RoleDef--><g class="link" data-entity-1="R" data-entity-2="UC_RoleDef" data-source-line="31" data-uid="lnk17" id="link_R_UC_RoleDef"><path d="M586.16,140.2469 C616.95,146.0569 659.4538,154.0659 702.8138,162.2359" fill="none" id="R-to-UC_RoleDef" style="stroke:#181818;stroke-width:1;"/><polygon fill="#181818" points="708.71,163.3469,700.6063,157.7496,703.7965,162.4211,699.125,165.6112,708.71,163.3469" style="stroke:#181818;stroke-width:1;"/></g><!--link HM to UC_RoleDef--><g class="link" data-entity-1="HM" data-entity-2="UC_RoleDef" data-source-line="32" data-uid="lnk18" id="link_HM_UC_RoleDef"><path d="M607.76,231.6469 C641.08,223.0969 678.8883,213.3884 716.5283,203.7284" fill="none" id="HM-to-UC_RoleDef" style="stroke:#181818;stroke-width:1;"/><polygon fill="#181818" points="722.34,202.2369,712.6282,200.5997,717.497,203.4798,714.6169,208.3486,722.34,202.2369" style="stroke:#181818;stroke-width:1;"/></g><!--SRC=[TL7BQiCm4BphAnOV-e0ua6ieXU0U4cYW69nhKUIrlKIHZBGEbBR_NacsqnAe3xQOdTKypCGQeV88XGolrHfA6u2TONb2k8EDfjQSqR0G6Xi6jk2exHXgSgYOh17Y7ZQAhVD2nWza1_8K3Xb83uSPVBLjYtLE9egDisgUbQZSG3p1vGnloP5fOI-DRAVPTX_bTgP3HooDGd60fwyyXmhMi1cu2qv9oUIh6YVbV8YxnZ9E0MmJp05KHlwkOGr3SEVXOShW7mFbF7W6RLi8vaD-gHHw7t1b7K8pc5I3rCI4VYdGr11bXEYbEWNdaAsM_xMQmMUu2AAgYlrdBzYGmP7-viYwT6jOALmiYEJONF4U6O6SjbEgesMsvnZhPXgVmcejZzQ5PYweFw0UPHpwtXfFHnhTBwuB_LLx0J8amelKG-eLrEHacSZNkD_npvIe4ybtr7jHGfu__xMptTyYFm00]--></g></svg>