<svg xmlns="http://www.w3.org/2000/svg" xmlns:xlink="http://www.w3.org/1999/xlink" contentStyleType="text/css" data-diagram-type="DESCRIPTION" height="331px" preserveAspectRatio="none" style="width:1302px;height:331px;background:#FFFFFF;" version="1.1" viewBox="0 0 1302 331" width="1302px" zoomAndPan="magnify"><title>Use Case 3: Agentic Interview Management</title><defs/><g><text fill="#000000" font-family="sans-serif" font-size="14" font-weight="bold" lengthAdjust="spacing" textLength="344.2373" x="472.0663" y="22.9951">Use Case 3: Agentic Interview Management</text><!--cluster 3. Agentic Interview Management--><g class="cluster" data-entity="3. Agentic Interview Management" data-source-line="23" data-uid="ent0013" id="cluster_3. Agentic Interview Management"><path d="M656.9,43.2969 L925.3629,43.2969 A3.75,3.75 0 0 1 927.8629,45.7969 L934.8629,65.5938 L1292.87,65.5938 A2.5,2.5 0 0 1 1295.37,68.0938 L1295.37,228.7969 A2.5,2.5 0 0 1 1292.87,231.2969 L656.9,231.2969 A2.5,2.5 0 0 1 654.4,228.7969 L654.4,45.7969 A2.5,2.5 0 0 1 656.9,43.2969" fill="none" style="stroke:#000000;stroke-width:1.5;"/><line style="stroke:#000000;stroke-width:1.5;" x1="654.4" x2="934.8629" y1="65.5938" y2="65.5938"/><text fill="#000000" font-family="sans-serif" font-size="14" font-weight="bold" lengthAdjust="spacing" textLength="267.4629" x="658.4" y="58.292">3. Agentic Interview Management</text></g><g class="entity" data-entity="UC_ManageInt" data-source-line="24" data-uid="ent0014" id="entity_UC_ManageInt"><ellipse cx="794.8254" cy="102.296" fill="#F1F1F1" rx="108.7954" ry="24.1591" style="stroke:#181818;stroke-width:0.5;"/><text fill="#000000" font-family="sans-serif" font-size="14" lengthAdjust="spacing" textLength="183.2715" x="703.1896" y="105.1426">Manage Interview Process</text></g><g class="entity" data-entity="UC_AutoSched" data-source-line="25" data-uid="ent0015" id="entity_UC_AutoSched"><ellipse cx="1161.8246" cy="184.2978" fill="#F1F1F1" rx="106.7046" ry="23.7409" style="stroke:#181818;stroke-width:0.5;"/><text fill="#000000" font-family="sans-serif" font-size="14" lengthAdjust="spacing" textLength="178.7324" x="1072.4584" y="187.1445">Auto-Schedule Interviews</text></g><g class="entity" data-entity="UC_Scorecard" data-source-line="26" data-uid="ent0016" id="entity_UC_Scorecard"><ellipse cx="794.826" cy="188.2941" fill="#F1F1F1" rx="124.436" ry="27.2872" style="stroke:#181818;stroke-width:0.5;"/><text fill="#000000" font-family="sans-serif" font-size="14" lengthAdjust="spacing" textLength="216.7949" x="686.4286" y="191.1408">Complete Mandated Scorecard</text></g><g class="entity" data-entity="GMN17" data-source-line="29" data-uid="ent0018" id="entity_GMN17"><path d="M1044.27,85.1669 L1044.27,125.4325 A0,0 0 0 0 1044.27,125.4325 L1157.82,125.4325 L1161.82,160.2269 L1165.82,125.4325 L1279.3701,125.4325 A0,0 0 0 0 1279.3701,125.4325 L1279.3701,95.1669 L1269.3701,85.1669 L1044.27,85.1669 A0,0 0 0 0 1044.27,85.1669" fill="#FEFFDD" style="stroke:#181818;stroke-width:0.5;"/><path d="M1269.3701,85.1669 L1269.3701,95.1669 L1279.3701,95.1669 L1269.3701,85.1669" fill="#FEFFDD" style="stroke:#181818;stroke-width:0.5;"/><text fill="#000000" font-family="sans-serif" font-size="13" lengthAdjust="spacing" textLength="214.1001" x="1050.27" y="102.2338">AI handles calendar coordination</text><text fill="#000000" font-family="sans-serif" font-size="13" lengthAdjust="spacing" textLength="107.1484" x="1050.27" y="117.3666">with candidates.</text></g><!--entity V--><g class="entity" data-entity="V" data-source-line="6" data-uid="ent0002" id="entity_V"><ellipse cx="28.2305" cy="191.6469" fill="#F1F1F1" rx="8" ry="8" style="stroke:#181818;stroke-width:0.5;"/><path d="M28.2305,199.6469 L28.2305,226.6469 M15.2305,207.6469 L41.2305,207.6469 M28.2305,226.6469 L15.2305,241.6469 M28.2305,226.6469 L41.2305,241.6469" fill="none" style="stroke:#181818;stroke-width:0.5;"/><text fill="#000000" font-family="sans-serif" font-size="14" lengthAdjust="spacing" textLength="44.4609" x="6" y="256.142">Visitor</text></g><!--entity U--><g class="entity" data-entity="U" data-source-line="7" data-uid="ent0003" id="entity_U"><ellipse cx="323.1067" cy="119.6469" fill="#F1F1F1" rx="8" ry="8" style="stroke:#181818;stroke-width:0.5;"/><path d="M323.1067,127.6469 L323.1067,154.6469 M310.1067,135.6469 L336.1067,135.6469 M323.1067,154.6469 L310.1067,169.6469 M323.1067,154.6469 L336.1067,169.6469" fill="none" style="stroke:#181818;stroke-width:0.5;"/><text fill="#000000" font-family="sans-serif" font-size="14" lengthAdjust="spacing" textLength="105.8135" x="270.2" y="184.142">Logged-in User</text></g><!--entity R--><g class="entity" data-entity="R" data-source-line="8" data-uid="ent0004" id="entity_R"><ellipse cx="553.5775" cy="72.6469" fill="#F1F1F1" rx="8" ry="8" style="stroke:#181818;stroke-width:0.5;"/><path d="M553.5775,80.6469 L553.5775,107.6469 M540.5775,88.6469 L566.5775,88.6469 M553.5775,107.6469 L540.5775,122.6469 M553.5775,107.6469 L566.5775,122.6469" fill="none" style="stroke:#181818;stroke-width:0.5;"/><text fill="#000000" font-family="sans-serif" font-size="14" lengthAdjust="spacing" textLength="64.415" x="521.37" y="137.142">Recruiter</text></g><!--entity HM--><g class="entity" data-entity="HM" data-source-line="9" data-uid="ent0005" id="entity_HM"><ellipse cx="553.5793" cy="183.6469" fill="#F1F1F1" rx="8" ry="8" style="stroke:#181818;stroke-width:0.5;"/><path d="M553.5793,191.6469 L553.5793,218.6469 M540.5793,199.6469 L566.5793,199.6469 M553.5793,218.6469 L540.5793,233.6469 M553.5793,218.6469 L566.5793,233.6469" fill="none" style="stroke:#181818;stroke-width:0.5;"/><text fill="#000000" font-family="sans-serif" font-size="14" lengthAdjust="spacing" textLength="107.6387" x="499.76" y="248.142">Hiring Manager</text></g><!--entity AI--><g class="entity" data-entity="AI" data-source-line="10" data-uid="ent0006" id="entity_AI"><ellipse cx="794.8379" cy="258.6469" fill="#F1F1F1" rx="8" ry="8" style="stroke:#181818;stroke-width:0.5;"/><path d="M794.8379,266.6469 L794.8379,293.6469 M781.8379,274.6469 L807.8379,274.6469 M794.8379,293.6469 L781.8379,308.6469 M794.8379,293.6469 L807.8379,308.6469" fill="none" style="stroke:#181818;stroke-width:0.5;"/><text fill="#000000" font-family="sans-serif" font-size="14" lengthAdjust="spacing" textLength="59.5957" x="765.04" y="323.142">AI Agent</text></g><g class="entity" data-entity="GMN10" data-source-line="18" data-uid="ent0011" id="entity_GMN10"><path d="M207.46,222.5969 L207.46,234.9269 L50.77,223.4269 L207.46,242.9269 L207.46,277.9953 A0,0 0 0 0 207.46,277.9953 L438.7579,277.9953 A0,0 0 0 0 438.7579,277.9953 L438.7579,232.5969 L428.7579,222.5969 L207.46,222.5969 A0,0 0 0 0 207.46,222.5969" fill="#FEFFDD" style="stroke:#181818;stroke-width:0.5;"/><path d="M428.7579,222.5969 L428.7579,232.5969 L438.7579,232.5969 L428.7579,222.5969" fill="#FEFFDD" style="stroke:#181818;stroke-width:0.5;"/><text fill="#000000" font-family="sans-serif" font-size="13" lengthAdjust="spacing" textLength="210.2979" x="213.46" y="239.6638">Unauthenticated users (Visitors)</text><text fill="#000000" font-family="sans-serif" font-size="13" lengthAdjust="spacing" textLength="137.8267" x="213.46" y="254.7966">must log in to access</text><text fill="#000000" font-family="sans-serif" font-size="13" lengthAdjust="spacing" textLength="128.4829" x="213.46" y="269.9294">core functionalities.</text></g><!--reverse link V to U--><g class="link" data-entity-1="V" data-entity-2="U" data-source-line="13" data-uid="lnk7" id="link_V_U"><path d="M68.2488,211.7069 C114.0188,200.4469 204.63,178.1769 269.73,162.1769" fill="none" id="V-backto-U" style="stroke:#181818;stroke-width:1;"/><polygon fill="none" points="50.77,216.0069,69.6822,217.5331,66.8155,205.8806,50.77,216.0069" style="stroke:#181818;stroke-width:1;"/><text fill="#000000" font-family="sans-serif" font-size="13" lengthAdjust="spacing" textLength="95.4307" x="81.46" y="181.3638">Authentication</text></g><!--reverse link U to R--><g class="link" data-entity-1="U" data-entity-2="R" data-source-line="14" data-uid="lnk8" id="link_U_R"><path d="M393.8703,134.9473 C438.5103,125.7573 483.71,116.4669 521.08,108.7769" fill="none" id="U-backto-R" style="stroke:#181818;stroke-width:1;"/><polygon fill="none" points="376.24,138.5769,395.0801,140.8241,392.6604,129.0706,376.24,138.5769" style="stroke:#181818;stroke-width:1;"/></g><!--reverse link U to HM--><g class="link" data-entity-1="U" data-entity-2="HM" data-source-line="15" data-uid="lnk9" id="link_U_HM"><path d="M393.5726,168.753 C430.4426,179.083 462.4,188.0369 499.49,198.4269" fill="none" id="U-backto-HM" style="stroke:#181818;stroke-width:1;"/><polygon fill="none" points="376.24,163.8969,391.9539,174.5305,395.1913,162.9755,376.24,163.8969" style="stroke:#181818;stroke-width:1;"/></g><!--link R to UC_ManageInt--><g class="link" data-entity-1="R" data-entity-2="UC_ManageInt" data-source-line="35" data-uid="lnk20" id="link_R_UC_ManageInt"><path d="M585.86,102.2969 C611.44,102.2969 643.21,102.2969 679.57,102.2969" fill="none" id="R-to-UC_ManageInt" style="stroke:#181818;stroke-width:1;"/><polygon fill="#181818" points="685.57,102.2969,676.57,98.2969,680.57,102.2969,676.57,106.2969,685.57,102.2969" style="stroke:#181818;stroke-width:1;"/></g><!--link AI to UC_AutoSched--><g class="link" data-entity-1="AI" data-entity-2="UC_AutoSched" data-source-line="36" data-uid="lnk21" id="link_AI_UC_AutoSched"><path d="M825.08,279.9669 C883.28,263.3869 1009.0596,227.5407 1089.1296,204.7307" fill="none" id="AI-to-UC_AutoSched" style="stroke:#181818;stroke-width:1;"/><polygon fill="#181818" points="1094.9,203.0869,1085.1485,201.7057,1090.0913,204.4568,1087.3403,209.3996,1094.9,203.0869" style="stroke:#181818;stroke-width:1;"/></g><!--link UC_ManageInt to UC_AutoSched--><g class="link" data-entity-1="UC_ManageInt" data-entity-2="UC_AutoSched" data-source-line="37" data-uid="lnk22" id="link_UC_ManageInt_UC_AutoSched"><path d="M872.35,119.4869 C934.95,133.5569 1017.1661,152.0211 1079.4961,166.0311" fill="none" id="UC_ManageInt-to-UC_AutoSched" style="stroke:#181818;stroke-width:1;stroke-dasharray:7.0,7.0;"/><polygon fill="#181818" points="1085.35,167.3469,1077.4463,161.4705,1080.4717,166.2504,1075.6919,169.2758,1085.35,167.3469" style="stroke:#181818;stroke-width:1;"/><text fill="#000000" font-family="sans-serif" font-size="13" lengthAdjust="spacing" textLength="63.0068" x="950.27" y="135.3638">&#171;include&#187;</text></g><!--link R to UC_Scorecard--><g class="link" data-entity-1="R" data-entity-2="UC_Scorecard" data-source-line="38" data-uid="lnk23" id="link_R_UC_Scorecard"><path d="M585.99,117.9769 C603.51,126.3969 625.89,136.5869 646.4,144.2969 C668.4,152.5669 686.9479,158.65 709.3579,165.3" fill="none" id="R-to-UC_Scorecard" style="stroke:#181818;stroke-width:1;"/><polygon fill="#181818" points="715.11,167.0069,707.6198,160.6118,710.3166,165.5845,705.3439,168.2813,715.11,167.0069" style="stroke:#181818;stroke-width:1;"/></g><!--link HM to UC_Scorecard--><g class="link" data-entity-1="HM" data-entity-2="UC_Scorecard" data-source-line="39" data-uid="lnk24" id="link_HM_UC_Scorecard"><path d="M607.68,207.7469 C629.57,205.4669 649.8424,203.3393 675.6324,200.6493" fill="none" id="HM-to-UC_Scorecard" style="stroke:#181818;stroke-width:1;"/><polygon fill="#181818" points="681.6,200.0269,672.2336,196.9821,676.627,200.5456,673.0635,204.939,681.6,200.0269" style="stroke:#181818;stroke-width:1;"/></g><!--SRC=[VL9DQ-Cm4BthLmo-TFVWN78h8H1oIM03YujpBQeqiOSgKf36xQ6x_tr7ifqF2kk3BTwRDpFloKpi4Dg4iDNoMZx3faFFP63l6UC7uISSjDSTdWLMok69WGD4wde6In4DK_1AFS76S8X9wVo1waY9v521Jd2SmL-Xwz3MvFF4aMjdha4J1-89RcPuHv5yD-qmShl3J6xsuxe5tkpp5dlVOoJMtg0wmkfFNKCBuchWllZIPTrsP9hv82sL3uoJht2IdG5Qhsyoj338qWb-JDRIJoav3ud1XGx4ayIYZS6K13SX8fm6NzBHZfWmBHHw2tcCKXTjtiKGLCl5VnElu4kwGHvjyWLL8tLN-pk6F7CCS_iwya8_oiH_g5zCZtPmT-ghBFE5VfHjm_dYK7AHjhPay9AT6HtjhBm2HLbU9Sctm1pEESflxVCZLzTBJuS9Z7OIZ8uIMeYM_7X5S-4dSIybtb9UG4BCu3N8l_dE6tH5atgw9DL0NQyVev1X4tPRvBu05ej7LlwOrOgySOF5zVhMycPsT_YE_GC0]--></g></svg>